<svg id="Layer_1" data-name="Layer 1" xmlns="http://www.w3.org/2000/svg" viewBox="0 0 83.6 84.77"><defs><style>.cls-1{fill:#69b7a1;}.cls-2{fill:#46ab7b;}.cls-3{fill:#52939f;}.cls-4{fill:#cb3738;}.cls-5{fill:#5ba1a6;}.cls-6{fill:#ecb665;}.cls-7{fill:#afc25c;}.cls-8{fill:#d12a84;}</style></defs><path class="cls-1" d="M43.27,41.07c.92-4.06,3.62-6.9,6.87-9.1,4.78-3.24,10.43-1.57,13.25,3.52,2.74,4.94,3.36,10.43,4.35,15.83,0,1.61,0,3.21,0,4.82-1.46,4-1.18,9.13-6.5,10.87l-3.12-3.86c5-2.44,6.33-8.8,3.36-16.2-.53,3.6-.91,7.71-5.07,8-5.78.46-5.83-5.29-8-9.32-1.44,2.71-.66,5.17-.86,7.5-3.18.6-4.66-.72-4.13-3.93A34.34,34.34,0,0,0,43.27,41.07Zm12.59,5.78c-.44-2.13-.76-4.28-1.36-6.36-.29-1-.75-2.43-2-2.41-1.43,0-2,1.57-2.54,2.64-1.05,1.89.9,1.54,1.71,1.89C53.63,43.45,53.73,45.68,55.86,46.85Z"/><path class="cls-2" d="M6.2,24.93c1.74-1.68,3.42-2.2,5.43-.23,3.69,3.62,7.52,7.12,11.28,10.68,1.4,1.33,2.36,3,.8,4.63S20.54,41.1,19,39.72c-4.56-4.09-9.35-8-13-12.95Z"/><path class="cls-3" d="M58.07,63.15,61.19,67c-1.25,4.38-1,9.43-6.32,11.8-4.43,2-8.94,1.73-13.27.66A28.62,28.62,0,0,1,22.42,64c-3-5.88-2.24-11.66,1.81-15.69,3.86-3.84,9.23-4.35,15.31-1.45-.69,2,3.71,3.15.83,5.44C38.59,51.54,36.8,50.8,35,50c-3.17-1.42-6-.23-8,1.9s-2,5.16-.62,8.5c2.24-2.43,2.94-5.74,6.27-6.15,1,1.11,4,1.18,2,3.83-2.3,1.69-3.3,3.88-2.46,6.7.54,1.82,1.46,3.36,3.73,3.06,2.45-.32,2.64-1.9,2.15-3.95a3.87,3.87,0,0,1,1.11-4L43.28,64a3,3,0,0,0,1.49,2.25c1.68,1.1,1.8,2.89.93,4.64-1,2-2.33.79-3.57.26-1.78-.76-2.87.32-4.1,1.39C46.76,78,52.15,76.94,56,69.2L55.14,68v0c.34-1.88-1.88-4.9,2.27-5.08A1.89,1.89,0,0,1,58.07,63.15Z"/><path class="cls-4" d="M37.44,30.38a3.07,3.07,0,0,1-2.08,3c-1.78.78-2.71-.46-3.55-1.7-3.16-4.69-6.22-9.46-9.48-14.08-1.77-2.52-3.89-4.79-5.82-7.2-1.14-1.43-1.46-3,0-4.32a2.78,2.78,0,0,1,4,.11C27.37,13,32.14,21.36,37.26,29.43A2.87,2.87,0,0,1,37.44,30.38Z"/><path class="cls-5" d="M57.42,62.91c-4.15.18-1.93,3.2-2.27,5.08C52,67.73,50,65.55,48,63.41c-1.77-1.87-3.5-2.5-4.67.62L39.14,59.9c.28-1.14,2.19-.09,2.29-1.81H34.61c2-2.65-1-2.72-2-3.83,2.26-1.9,5.52.15,7.72-2,2.88-2.29-1.52-3.48-.83-5.44,3-.77,1.79-4.31,3.73-5.79a34.34,34.34,0,0,1,.12,8.17c-.53,3.21,1,4.53,4.13,3.93.87,2.23,2.68,3.41,4.66,4.56C54.33,59,57,59.87,57.42,62.91Z"/><path class="cls-6" d="M51,23.4c0,2.35.16,3.78-1.61,4.1-1.62.3-3.08.43-4.09-1.5-3-5.8-4.12-12.13-5.24-18.44-.34-1.92.88-3.39,2.9-3.9a2.49,2.49,0,0,1,3.27,2.08C47.56,12.06,48.92,18.35,51,23.4Z"/><path class="cls-7" d="M82.6,33.63C82.17,37,79.14,37.78,77,39.21c-1.77,1.17-3.87,2.7-6.25,1s-2.56-4-.54-5.68a27.33,27.33,0,0,1,7.6-4.14C80.49,29.41,82,31.11,82.6,33.63Z"/><path class="cls-8" d="M12.2,50.48c-3.3-.43-6.51-2.7-9.92-4.43a1.76,1.76,0,0,1-.64-2.85c.78-1.13,1.59-2.2,3.11-1.67,3.17,1.1,6.31,2.32,9.45,3.52,1.62.63,2.94,1.9,2.66,3.56C16.52,50.63,14.45,50.31,12.2,50.48Z"/></svg>